<?xml version="1.0" encoding="UTF-8" standalone="no" ?>
<!DOCTYPE svg PUBLIC "-//W3C//DTD SVG 1.1//EN" "http://www.w3.org/Graphics/SVG/1.1/DTD/svg11.dtd">
<svg xmlns="http://www.w3.org/2000/svg" xmlns:xlink="http://www.w3.org/1999/xlink" version="1.1" width="1280" height="1024" viewBox="0 0 1280 1024" xml:space="preserve">
<desc>Created with Fabric.js 5.3.0</desc>
<defs>
</defs>
<g transform="matrix(1 0 0 1 640 512)" id="background-logo"  >
<rect style="stroke: none; stroke-width: 0; stroke-dasharray: none; stroke-linecap: butt; stroke-dashoffset: 0; stroke-linejoin: miter; stroke-miterlimit: 4; fill: rgb(255,255,255); fill-opacity: 0; fill-rule: nonzero; opacity: 1;"  paint-order="stroke"  x="-640" y="-512" rx="0" ry="0" width="1280" height="1024" />
</g>
<g transform="matrix(2.6040859719465757 0 0 2.6040859719465757 638.4785257386537 381.1485229375226)" id="logo-logo"  >
<g style=""  paint-order="stroke"   >
		<g transform="matrix(0.13300263198418094 0 0 -0.13300263198418097 0 2.842171e-14)"  >
<path style="stroke: none; stroke-width: 1; stroke-dasharray: none; stroke-linecap: butt; stroke-dashoffset: 0; stroke-linejoin: miter; stroke-miterlimit: 4; fill: rgb(0,0,0); fill-rule: nonzero; opacity: 1;"  paint-order="stroke"  transform=" translate(-670.05, -660.285)" d="M 1240.97 30 L 1167.18 30 L 1167.18 92.6719 L 1309.65 92.6719 C 1306.44 57.582 1276.88 30 1240.97 30 Z M 30.4336 92.6719 L 254.297 92.6719 L 223.051 30 L 99.1055 30 C 63.2031 30 33.6484 57.582 30.4336 92.6719 Z M 1137.18 109.41 C 1137.1100000000001 108.832 1137.01 108.27 1137.01 107.672 C 1137.01 107.07 1137.11 106.512 1137.18 105.92999999999999 L 1137.18 30.0898 L 920.035 30.0898 L 920.035 294.422 L 1137.18 294.422 Z M 391.484 92.6719 C 391.52 92.6719 391.555 92.6719 391.58599999999996 92.6719 L 687.738 92.6719 L 698.668 30 L 256.57800000000003 30 L 287.81600000000003 92.6719 z M 374.05899999999997 122.672 L 302.77299999999997 122.672 L 355.42199999999997 228.26999999999998 z M 401.83599999999996 246.82 C 416.69899999999996 245.172 432.734 244.34 449.48799999999994 244.34 C 497.30899999999997 244.34 545.012 250.859 591.1329999999999 257.172 C 614.3159999999999 260.35200000000003 636.578 263.281 657.6329999999999 265.27000000000004 L 682.504 122.672 L 404.516 122.672 L 381.85200000000003 251.121 C 388.406 249.148 395.05100000000004 247.57000000000002 401.836 246.82000000000002 z M 705.1519999999999 267.582 L 747.0859999999999 122.672 L 712.9529999999999 122.672 L 687.7299999999999 267.262 C 691.9379999999999 267.422 696.2849999999999 267.711 700.3279999999999 267.711 C 702.0159999999998 267.711 703.5199999999999 267.60900000000004 705.1519999999998 267.582 z M 181.047 709.254 C 201.363 624.34 256.863 459.855 384.352 443.53900000000004 C 443.71099999999996 435.96100000000007 488.539 437.68000000000006 524.566 439.047 C 586.664 441.43800000000005 617.813 442.62100000000004 659.133 398.13700000000006 C 699.945 354.1840000000001 720.895 318.05100000000004 731.2270000000001 295.96100000000007 C 727.1250000000001 296.46100000000007 722.8360000000001 296.83200000000005 718.4220000000001 297.1020000000001 C 718.2190000000002 297.1290000000001 718.0040000000001 297.1210000000001 717.7970000000001 297.1410000000001 C 712.2110000000001 297.4800000000001 706.4490000000002 297.71100000000007 700.3280000000001 297.71100000000007 C 666.1720000000001 297.71100000000007 627.7500000000001 292.44900000000007 587.066 286.8910000000001 C 541.938 280.71900000000005 495.27000000000004 274.3400000000001 449.48800000000006 274.3400000000001 C 433.83200000000005 274.3400000000001 418.91800000000006 275.1090000000001 405.15200000000004 276.6410000000001 C 293.62100000000004 289.0510000000001 197.39800000000005 542.7890000000001 182.16800000000003 676.8320000000001 C 180.80100000000004 688.8750000000001 180.46500000000003 699.6800000000001 181.04700000000003 709.2540000000001 z M 745.348 333.551 C 731.996 356.51599999999996 711.7729999999999 385.52 681.117 418.551 C 630.43 473.117 587.871 471.5 523.418 469.027 C 488.5 467.699 445.059 466.02 388.16 473.305 C 256.977 490.09 210.789 707.422 202.328 754.336 C 207.488 756.996 213.52 758.5 220.602 758.5 C 227.555 758.5 233.238 757.16 235.11700000000002 756.664 C 296.988 727.781 339.68 659.52 340.19500000000005 658.684 C 406.3090000000001 554.125 458.69100000000003 532.699 516.9960000000001 532.699 C 530.7070000000001 532.699 544.0160000000001 533.8589999999999 558.1050000000001 535.102 C 572.1840000000001 536.34 586.7380000000002 537.6089999999999 601.7380000000002 537.6089999999999 C 624.1090000000002 537.6089999999999 643.6950000000002 534.7579999999999 663.3790000000001 528.637 C 739.4770000000001 504.9649999999999 747.9450000000002 399.80099999999993 745.3480000000002 333.55099999999993 z M 729.117 30 L 718.188 92.6719 L 890.035 92.6719 L 890.035 30 Z M 1130.29 881.934 L 1130.29 788.602 L 1061.23 788.602 L 1061.23 881.934 z M 925.0229999999999 880.434 L 925.0229999999999 798.285 L 811.859 798.285 L 811.859 880.434 z M 675.9409999999999 880.957 L 675.9409999999999 775.258 L 598.402 775.258 L 598.402 880.957 Z M 99.1055 1290.57 L 622.168 1290.57 L 622.168 910.957 L 583.402 910.957 C 575.1170000000001 910.957 568.402 904.242 568.402 895.957 L 568.402 760.258 C 568.402 751.9730000000001 575.1170000000001 745.258 583.402 745.258 L 690.941 745.258 C 699.2230000000001 745.258 705.941 751.9730000000001 705.941 760.258 L 705.941 895.9570000000001 C 705.941 904.2420000000001 699.2230000000001 910.9570000000001 690.941 910.9570000000001 L 652.168 910.9570000000001 L 652.168 1290.57 L 853.441 1290.57 L 853.441 910.434 L 796.859 910.434 C 788.5780000000001 910.434 781.859 903.7189999999999 781.859 895.434 L 781.859 783.285 C 781.859 775 788.5780000000001 768.285 796.859 768.285 L 940.023 768.285 C 948.3050000000001 768.285 955.023 775 955.023 783.285 L 955.023 895.434 C 955.023 903.7189999999999 948.3050000000001 910.434 940.023 910.434 L 883.441 910.434 L 883.441 1290.57 L 1080.76 1290.57 L 1080.76 911.934 L 1046.23 911.934 C 1037.94 911.934 1031.23 905.2189999999999 1031.23 896.934 L 1031.23 773.602 C 1031.23 765.316 1037.94 758.602 1046.23 758.602 L 1145.29 758.602 C 1153.57 758.602 1160.29 765.316 1160.29 773.602 L 1160.29 896.934 C 1160.29 905.2189999999999 1153.57 911.934 1145.29 911.934 L 1110.76 911.934 L 1110.76 1290.57 L 1240.97 1290.57 C 1279.02 1290.57 1309.98 1259.61 1309.98 1221.55 L 1309.98 122.672 L 1167.18 122.672 L 1167.18 309.422 C 1167.18 317.699 1160.46 324.418 1152.18 324.418 L 905.035 324.418 C 896.754 324.418 890.035 317.699 890.035 309.422 L 890.035 122.67200000000003 L 778.305 122.67200000000003 L 737.223 264.648 C 741.918 263.77000000000004 746.43 262.762 750.563 261.48 C 751.859 261.082 753.199 260.922 754.535 260.879 C 754.6909999999999 260.87100000000004 754.8399999999999 260.80100000000004 754.996 260.80100000000004 C 755.297 260.80100000000004 755.609 260.891 755.914 260.91 C 756.48 260.94100000000003 757.047 261 757.602 261.10200000000003 C 757.855 261.148 758.102 261.129 758.355 261.19100000000003 C 758.6560000000001 261.25000000000006 758.922 261.391 759.2230000000001 261.48 C 759.652 261.60900000000004 760.0820000000001 261.738 760.504 261.91 C 761.07 262.129 761.6170000000001 262.398 762.145 262.68 C 762.367 262.809 762.6129999999999 262.871 762.836 263.012 C 762.984 263.102 763.09 263.23 763.227 263.309 C 763.766 263.672 764.254 264.059 764.73 264.48 C 765.035 264.73 765.336 264.961 765.609 265.238 C 766.07 265.711 766.469 266.211 766.871 266.73 C 767.086 267.031 767.328 267.28900000000004 767.523 267.59000000000003 C 767.926 268.199 768.246 268.85200000000003 768.551 269.51200000000006 C 768.676 269.77000000000004 768.832 270.01200000000006 768.941 270.28100000000006 C 769.313 271.21900000000005 769.605 272.19900000000007 769.7810000000001 273.2300000000001 C 769.7810000000001 273.2300000000001 769.7890000000001 273.23800000000006 769.7890000000001 273.25000000000006 C 771.488 283.08200000000005 809.82 514.508 672.2890000000001 557.289 C 649.6410000000001 564.332 627.2230000000001 567.609 601.738 567.609 C 585.426 567.609 570.1990000000001 566.2810000000001 555.48 564.984 C 542.066 563.813 529.395 562.6990000000001 516.996 562.6990000000001 C 477.99199999999996 562.6990000000001 430.90599999999995 571.3520000000001 365.645 674.5630000000001 C 363.71099999999996 677.7110000000001 317.44899999999996 751.9220000000001 246.63299999999998 784.3950000000001 C 246.094 784.6370000000001 245.54699999999997 784.8520000000001 244.98399999999998 785.0310000000001 C 243.88299999999998 785.3910000000001 233.844 788.5000000000001 220.60199999999998 788.5000000000001 C 200.35499999999996 788.5000000000001 183.24599999999998 781.3200000000002 171.12099999999998 767.7420000000001 C 153.76999999999998 748.3090000000001 147.46099999999998 716.5820000000001 152.36299999999997 673.441 C 163.531 575.16 233.422 344.945 342.809 270.18 L 269.254 122.672 L 30.1133 122.672 L 30.1133 1221.55 C 30.1133 1259.61 61.0664 1290.57 99.10549999999999 1290.57 z M 1340.1 107.672 C 1340.1 108.102 1340.01 108.512 1339.98 108.92999999999999 L 1339.98 1221.55 C 1339.98 1276.1499999999999 1295.56 1320.57 1240.97 1320.57 L 99.1055 1320.57 C 44.52340000000001 1320.57 0.11328100000000063 1276.1499999999999 0.11328100000000063 1221.55 L 0.11328100000000063 108.781 C 0.0820313 108.41 0 108.051 0 107.672 C 0 107.289 0.0820313 106.93 0.113281 106.559 L 0.113281 99.0117 C 0.113281 44.4219 44.5234 0 99.1055 0 L 1240.97 0 C 1295.56 0 1339.98 44.4219 1339.98 99.0117 L 1339.98 106.41000000000001 C 1340.01 106.83200000000001 1340.1 107.23800000000001 1340.1 107.67200000000001" stroke-linecap="round" />
</g>
</g>
</g>
<g transform="matrix(1.9211538461538462 0 0 1.9211538461538462 639.4795516720139 727.3131286222449)" id="text-logo"  >
<g style=""  paint-order="stroke"   >
		<g transform="matrix(1 0 0 1 0 0)" id="text-logo-path-0"  >
<path style="stroke: rgb(255,255,255); stroke-width: 0; stroke-dasharray: none; stroke-linecap: butt; stroke-dashoffset: 0; stroke-linejoin: miter; stroke-miterlimit: 4; fill: rgb(0,0,0); fill-rule: nonzero; opacity: 1;"  paint-order="stroke"  transform=" translate(-181.4, 27.84)" d="M 14.72 -5.04 L 14.72 -50.96 C 14.72 -54.08 12.24 -56.56 9.12 -56.56 C 6 -56.56 3.52 -54.08 3.52 -50.96 L 3.52 -5.04 C 3.52 -1.92 6 0.56 9.12 0.56 C 12.24 0.56 14.72 -1.92 14.72 -5.04 Z M 48.96 -4.72 L 48.96 -32.64 C 48.96 -39.52 54.56 -45.12 61.44 -45.12 C 68.24 -45.12 73.84 -39.52 73.84 -32.64 L 73.84 -4.72 C 73.84 -1.6 76.32 0.88 79.44 0.88 C 82.56 0.88 85.04 -1.6 85.04 -4.72 L 85.04 -32.64 C 85.04 -45.76 74.48 -56.32 61.44 -56.32 C 48.32 -56.32 37.76 -45.76 37.76 -32.64 L 37.76 -4.72 C 37.76 -1.6 40.24 0.88 43.36 0.88 C 46.48 0.88 48.96 -1.6 48.96 -4.72 Z M 119.28 -5.04 L 119.28 -23.2 L 142.48 -23.2 L 142.48 -5.04 C 142.48 -1.92 144.96 0.56 148.08 0.56 C 151.2 0.56 153.68 -1.92 153.68 -5.04 L 153.68 -50.96 C 153.68 -54.08 151.2 -56.56 148.08 -56.56 C 144.96 -56.56 142.48 -54.08 142.48 -50.96 L 142.48 -34.4 L 119.28 -34.4 L 119.28 -50.96 C 119.28 -54.08 116.8 -56.56 113.68 -56.56 C 110.56 -56.56 108.08 -54.08 108.08 -50.96 L 108.08 -5.04 C 108.08 -1.92 110.56 0.56 113.68 0.56 C 116.8 0.56 119.28 -1.92 119.28 -5.04 Z M 187.92 -4.72 L 187.92 -15.2 L 212.8 -15.2 L 212.8 -4.72 C 212.8 -1.6 215.28 0.88 218.4 0.88 C 221.52 0.88 224 -1.6 224 -4.72 L 224 -32.64 C 224 -45.76 213.44 -56.32 200.4 -56.32 C 187.28 -56.32 176.72 -45.76 176.72 -32.64 L 176.72 -4.72 C 176.72 -1.6 179.2 0.88 182.32 0.88 C 185.44 0.88 187.92 -1.6 187.92 -4.72 Z M 187.92 -26.4 L 187.92 -32.64 C 187.92 -39.52 193.52 -45.12 200.4 -45.12 C 207.2 -45.12 212.8 -39.52 212.8 -32.64 L 212.8 -26.4 Z M 283.12 -50.96 L 283.12 -23.36 C 283.12 -16.48 277.52 -10.88 270.72 -10.88 C 263.84 -10.88 258.24 -16.48 258.24 -23.36 L 258.24 -50.96 C 258.24 -54.08 255.76 -56.56 252.64 -56.56 C 249.52 -56.56 247.04 -54.08 247.04 -50.96 L 247.04 -23.36 C 247.04 -10.24 257.6 0.32 270.72 0.32 C 283.76 0.32 294.32 -10.24 294.32 -23.36 L 294.32 -50.96 C 294.32 -54.08 291.84 -56.56 288.72 -56.56 C 285.6 -56.56 283.12 -54.08 283.12 -50.96 Z M 318.64 -9.36 C 323.6 -3.2 330.72 0.32 338.4 0.32 C 350 0.32 359.28 -6.72 359.28 -16.88 C 359.28 -27.84 350.96 -30.64 339.92 -33.04 C 332.88 -34.72 329.92 -35.76 329.92 -39.52 C 329.92 -42.56 332.64 -45.12 338.08 -45.12 C 341.84 -45.12 344.56 -43.76 346.56 -41.84 C 347.6 -40.88 348.96 -40.32 350.48 -40.32 C 353.52 -40.32 356.08 -42.8 356.08 -45.92 C 356.08 -47.52 355.44 -48.88 354.32 -49.92 C 350.56 -53.52 345.28 -56.32 338.08 -56.32 C 326.48 -56.32 318.72 -48.96 318.72 -39.52 C 318.72 -28.16 327.36 -24.56 337.36 -22.16 C 345.12 -20.48 348.08 -19.92 348.08 -16.88 C 348.08 -13.36 343.84 -10.88 338.4 -10.88 C 334.16 -10.88 330.32 -12.72 327.36 -16.4 C 326.32 -17.68 324.72 -18.48 322.96 -18.48 C 319.92 -18.48 317.36 -16 317.36 -12.88 C 317.36 -11.6 317.84 -10.32 318.64 -9.36 Z" stroke-linecap="round" />
</g>
</g>
</g>
<g transform="matrix(1.9211538461538462 0 0 1.9211538461538462 636.7744886846175 837.87318613195)" id="tagline-41ea96d6-27f0-4093-b58f-919fc43bc1ee-logo"  >
<g style=""  paint-order="stroke"   >
		<g transform="matrix(1 0 0 1 0 0)" id="tagline-41ea96d6-27f0-4093-b58f-919fc43bc1ee-logo-path-0"  >
<path style="stroke: none; stroke-width: 0; stroke-dasharray: none; stroke-linecap: butt; stroke-dashoffset: 0; stroke-linejoin: miter; stroke-miterlimit: 4; fill: rgb(0,0,0); fill-rule: nonzero; opacity: 1;"  paint-order="stroke"  transform=" translate(-129.035, 10.065)" d="M 1.54 -3.36 C 3.31 -1.28 5.77 0.15 8.58 0.15 C 12.38 0.15 15.17 -2.49 15.17 -5.13 C 15.17 -8.79 11.77 -10.53 8.87 -11.63 C 6.21 -12.64 4.35 -13.57 4.35 -15.17 C 4.35 -16.5 5.86 -18.13 8.5 -18.13 C 10.59 -18.13 11.95 -17.23 12.85 -16.01 C 13.05 -15.69 13.4 -15.52 13.78 -15.52 C 14.38 -15.52 14.94 -16.04 14.94 -16.68 C 14.94 -16.91 14.85 -17.17 14.7 -17.37 C 13.46 -19.05 11.48 -20.45 8.5 -20.45 C 4.5 -20.45 2.03 -17.75 2.03 -15.17 C 2.03 -11.95 5.19 -10.56 8.06 -9.48 C 10.7 -8.47 12.85 -7.28 12.85 -5.13 C 12.85 -3.83 11.11 -2.18 8.58 -2.18 C 6.53 -2.18 4.7 -3.19 3.31 -4.84 C 3.1 -5.1 2.78 -5.25 2.44 -5.25 C 1.83 -5.25 1.28 -4.73 1.28 -4.09 C 1.28 -3.83 1.39 -3.54 1.54 -3.36 Z M 46.66 -1.04 L 46.66 -18.79 C 46.66 -20.39 44.54 -21 43.7 -19.63 L 37.21 -9.51 C 36.83 -8.9 36.19 -8.9 35.81 -9.51 L 29.32 -19.63 C 28.48 -21 26.36 -20.39 26.36 -18.79 L 26.36 -1.04 C 26.36 -0.41 26.88 0.12 27.52 0.12 C 28.16 0.12 28.68 -0.41 28.68 -1.04 L 28.68 -15.02 C 28.68 -15.75 29 -15.83 29.38 -15.23 L 35.26 -6.06 C 35.84 -5.1 37.18 -5.1 37.76 -6.06 L 43.65 -15.23 C 44.02 -15.83 44.34 -15.75 44.34 -15.02 L 44.34 -1.04 C 44.34 -0.41 44.86 0.12 45.5 0.12 C 46.14 0.12 46.66 -0.41 46.66 -1.04 Z M 27.35 -18.42 L 27.35 -18.39 Z M 45.67 -18.39 L 45.67 -18.42 Z M 75.81 -1.42 L 68.53 -19.29 C 67.92 -20.82 65.83 -20.82 65.22 -19.29 L 57.94 -1.42 C 57.88 -1.31 57.85 -1.13 57.85 -0.96 C 57.85 -0.35 58.35 0.2 59.01 0.2 C 59.45 0.2 59.88 -0.09 60.06 -0.49 L 61.13 -3.13 C 61.39 -3.8 62.2 -4.35 62.93 -4.35 L 70.82 -4.35 C 71.54 -4.35 72.35 -3.8 72.62 -3.13 L 73.69 -0.49 C 73.86 -0.09 74.27 0.2 74.73 0.2 C 75.37 0.2 75.89 -0.32 75.89 -0.96 C 75.89 -1.1 75.86 -1.28 75.81 -1.42 Z M 63.07 -7.89 L 66.38 -15.98 C 66.64 -16.65 67.11 -16.65 67.37 -15.98 L 70.67 -7.89 C 70.93 -7.22 70.59 -6.67 69.86 -6.67 L 63.89 -6.67 C 63.16 -6.67 62.81 -7.22 63.07 -7.89 Z M 89.41 -1.04 L 89.41 -4.9 C 89.41 -5.63 89.99 -6.21 90.71 -6.21 L 92.65 -6.21 C 93.38 -6.21 94.31 -5.74 94.74 -5.16 L 98.63 -0.12 C 98.83 0.17 99.15 0.32 99.53 0.32 C 100.14 0.32 100.69 -0.17 100.69 -0.84 C 100.69 -1.07 100.6 -1.33 100.46 -1.54 L 97.35 -5.57 C 96.92 -6.15 97.09 -6.84 97.76 -7.16 C 99.88 -8.38 101.33 -10.67 101.33 -13.25 C 101.33 -17.08 98.11 -20.3 94.28 -20.3 L 88.68 -20.3 C 87.81 -20.3 87.09 -19.57 87.09 -18.71 L 87.09 -1.04 C 87.09 -0.41 87.61 0.12 88.25 0.12 C 88.88 0.12 89.41 -0.41 89.41 -1.04 Z M 89.41 -9.83 L 89.41 -16.68 C 89.41 -17.4 89.99 -17.98 90.71 -17.98 L 94.28 -17.98 C 96.98 -17.98 99.01 -15.95 99.01 -13.25 C 99.01 -10.56 96.98 -8.53 94.28 -8.53 L 90.71 -8.53 C 89.99 -8.53 89.41 -9.11 89.41 -9.83 Z M 121.19 -1.04 L 121.19 -16.68 C 121.19 -17.4 121.77 -17.98 122.5 -17.98 L 126.38 -17.98 C 127.02 -17.98 127.54 -18.5 127.54 -19.14 C 127.54 -19.78 127.02 -20.3 126.38 -20.3 L 113.68 -20.3 C 113.04 -20.3 112.52 -19.78 112.52 -19.14 C 112.52 -18.5 113.04 -17.98 113.68 -17.98 L 117.57 -17.98 C 118.29 -17.98 118.87 -17.4 118.87 -16.68 L 118.87 -1.04 C 118.87 -0.41 119.39 0.12 120.03 0.12 C 120.67 0.12 121.19 -0.41 121.19 -1.04 Z M 155.5 -1.04 L 155.5 -7.69 C 155.5 -8.41 156.08 -8.99 156.8 -8.99 L 165.5 -8.99 C 166.23 -8.99 166.81 -8.41 166.81 -7.69 L 166.81 -1.04 C 166.81 -0.41 167.33 0.12 167.97 0.12 C 168.61 0.12 169.13 -0.41 169.13 -1.04 L 169.13 -19.26 C 169.13 -19.89 168.61 -20.42 167.97 -20.42 C 167.33 -20.42 166.81 -19.89 166.81 -19.26 L 166.81 -12.62 C 166.81 -11.89 166.23 -11.31 165.5 -11.31 L 156.8 -11.31 C 156.08 -11.31 155.5 -11.89 155.5 -12.62 L 155.5 -19.26 C 155.5 -19.89 154.98 -20.42 154.34 -20.42 C 153.7 -20.42 153.18 -19.89 153.18 -19.26 L 153.18 -1.04 C 153.18 -0.41 153.7 0.12 154.34 0.12 C 154.98 0.12 155.5 -0.41 155.5 -1.04 Z M 190.65 -2.18 C 186.24 -2.18 182.64 -5.77 182.64 -10.18 C 182.64 -14.53 186.24 -18.13 190.65 -18.13 C 195.03 -18.13 198.62 -14.53 198.62 -10.18 C 198.62 -5.77 195.03 -2.18 190.65 -2.18 Z M 190.65 0.15 C 196.3 0.15 200.94 -4.5 200.94 -10.18 C 200.94 -15.81 196.3 -20.45 190.65 -20.45 C 184.96 -20.45 180.32 -15.81 180.32 -10.18 C 180.32 -4.5 184.96 0.15 190.65 0.15 Z M 232.43 -1.04 L 232.43 -18.79 C 232.43 -20.39 230.32 -21 229.48 -19.63 L 222.98 -9.51 C 222.6 -8.9 221.97 -8.9 221.59 -9.51 L 215.09 -19.63 C 214.25 -21 212.13 -20.39 212.13 -18.79 L 212.13 -1.04 C 212.13 -0.41 212.66 0.12 213.29 0.12 C 213.93 0.12 214.45 -0.41 214.45 -1.04 L 214.45 -15.02 C 214.45 -15.75 214.77 -15.83 215.15 -15.23 L 221.04 -6.06 C 221.62 -5.1 222.95 -5.1 223.53 -6.06 L 229.42 -15.23 C 229.8 -15.83 230.11 -15.75 230.11 -15.02 L 230.11 -1.04 C 230.11 -0.41 230.64 0.12 231.27 0.12 C 231.91 0.12 232.43 -0.41 232.43 -1.04 Z M 213.12 -18.42 L 213.12 -18.39 Z M 231.45 -18.39 L 231.45 -18.42 Z M 255.63 -2.32 L 247.25 -2.32 C 246.53 -2.32 245.95 -2.9 245.95 -3.63 L 245.95 -7.69 C 245.95 -8.41 246.53 -8.99 247.25 -8.99 L 253.6 -8.99 C 254.24 -8.99 254.76 -9.51 254.76 -10.15 C 254.76 -10.79 254.24 -11.31 253.6 -11.31 L 247.25 -11.31 C 246.53 -11.31 245.95 -11.89 245.95 -12.62 L 245.95 -16.68 C 245.95 -17.4 246.53 -17.98 247.25 -17.98 L 255.63 -17.98 C 256.27 -17.98 256.79 -18.5 256.79 -19.14 C 256.79 -19.78 256.27 -20.3 255.63 -20.3 L 245.22 -20.3 C 244.35 -20.3 243.63 -19.57 243.63 -18.71 L 243.63 -1.59 C 243.63 -0.73 244.35 0 245.22 0 L 255.63 0 C 256.27 0 256.79 -0.52 256.79 -1.16 C 256.79 -1.8 256.27 -2.32 255.63 -2.32 Z" stroke-linecap="round" />
</g>
</g>
</g>
</svg>